<mxfile host="app.diagrams.net" agent="Mozilla/5.0 (X11; Ubuntu; Linux x86_64; rv:132.0) Gecko/20100101 Firefox/132.0" version="24.8.6">
  <diagram name="Page-1" id="5f0bae14-7c28-e335-631c-24af17079c00">
    <mxGraphModel grid="1" page="1" gridSize="10" guides="1" tooltips="1" connect="1" arrows="1" fold="1" pageScale="1" pageWidth="1100" pageHeight="850" background="none" math="0" shadow="0">
      <root>
        <mxCell id="0" />
        <mxCell id="1" parent="0" />
        <mxCell id="39150e848f15840c-1" value="Client" style="verticalAlign=top;align=left;spacingTop=8;spacingLeft=2;spacingRight=12;shape=cube;size=10;direction=south;fontStyle=4;html=1;rounded=0;shadow=0;comic=0;labelBackgroundColor=none;strokeWidth=1;fontFamily=Verdana;fontSize=12" vertex="1" parent="1">
          <mxGeometry x="180" y="50" width="170" height="120" as="geometry" />
        </mxCell>
        <mxCell id="39150e848f15840c-2" value="Server" style="verticalAlign=top;align=left;spacingTop=8;spacingLeft=2;spacingRight=12;shape=cube;size=10;direction=south;fontStyle=4;html=1;rounded=0;shadow=0;comic=0;labelBackgroundColor=none;strokeWidth=1;fontFamily=Verdana;fontSize=12" vertex="1" parent="1">
          <mxGeometry x="540" y="10" width="510" height="430" as="geometry" />
        </mxCell>
        <mxCell id="39150e848f15840c-7" value="&lt;div&gt;Async Non&lt;/div&gt;&lt;div&gt;Blocking IO&lt;br&gt;&lt;/div&gt;" style="shape=component;align=left;spacingLeft=36;rounded=0;shadow=0;comic=0;labelBackgroundColor=none;strokeWidth=1;fontFamily=Verdana;fontSize=12;html=1;" vertex="1" parent="1">
          <mxGeometry x="550" y="60" width="140" height="100" as="geometry" />
        </mxCell>
        <mxCell id="YC6lqjd3cqx8O2niCZhP-7" value="Request" style="text;whiteSpace=wrap;html=1;" vertex="1" parent="1">
          <mxGeometry x="417.03" y="80" width="70" height="40" as="geometry" />
        </mxCell>
        <mxCell id="YC6lqjd3cqx8O2niCZhP-9" value="Response" style="text;whiteSpace=wrap;html=1;" vertex="1" parent="1">
          <mxGeometry x="417.03" y="115" width="70" height="40" as="geometry" />
        </mxCell>
        <mxCell id="YC6lqjd3cqx8O2niCZhP-15" value="Request Processor" style="verticalAlign=top;align=left;spacingTop=8;spacingLeft=2;spacingRight=12;shape=cube;size=10;direction=south;fontStyle=4;html=1;rounded=0;shadow=0;comic=0;labelBackgroundColor=none;strokeWidth=1;fontFamily=Verdana;fontSize=12" vertex="1" parent="1">
          <mxGeometry x="790" y="70" width="230" height="180" as="geometry" />
        </mxCell>
        <mxCell id="YC6lqjd3cqx8O2niCZhP-16" value="Thread Pool" style="shape=component;align=left;spacingLeft=36;rounded=0;shadow=0;comic=0;labelBackgroundColor=none;strokeWidth=1;fontFamily=Verdana;fontSize=12;html=1;" vertex="1" parent="1">
          <mxGeometry x="810" y="120" width="150" height="60" as="geometry" />
        </mxCell>
        <mxCell id="YC6lqjd3cqx8O2niCZhP-17" value="" style="endArrow=classic;html=1;rounded=0;" edge="1" parent="1">
          <mxGeometry width="50" height="50" relative="1" as="geometry">
            <mxPoint x="690" y="110" as="sourcePoint" />
            <mxPoint x="790" y="110" as="targetPoint" />
          </mxGeometry>
        </mxCell>
        <mxCell id="YC6lqjd3cqx8O2niCZhP-19" value="Request" style="text;whiteSpace=wrap;html=1;" vertex="1" parent="1">
          <mxGeometry x="705" y="80" width="90" height="40" as="geometry" />
        </mxCell>
        <mxCell id="YC6lqjd3cqx8O2niCZhP-21" value="" style="endArrow=classic;html=1;rounded=0;" edge="1" parent="1">
          <mxGeometry width="50" height="50" relative="1" as="geometry">
            <mxPoint x="930" y="250" as="sourcePoint" />
            <mxPoint x="930" y="300" as="targetPoint" />
          </mxGeometry>
        </mxCell>
        <mxCell id="YC6lqjd3cqx8O2niCZhP-23" value="" style="shape=cylinder3;whiteSpace=wrap;html=1;boundedLbl=1;backgroundOutline=1;size=15;" vertex="1" parent="1">
          <mxGeometry x="860" y="520" width="100" height="100" as="geometry" />
        </mxCell>
        <mxCell id="YC6lqjd3cqx8O2niCZhP-24" value="PostgreSQL" style="text;whiteSpace=wrap;html=1;" vertex="1" parent="1">
          <mxGeometry x="875" y="560" width="70" height="40" as="geometry" />
        </mxCell>
        <mxCell id="YC6lqjd3cqx8O2niCZhP-26" value="" style="endArrow=classic;html=1;rounded=0;entryX=0.989;entryY=0.587;entryDx=0;entryDy=0;entryPerimeter=0;" edge="1" parent="1">
          <mxGeometry width="50" height="50" relative="1" as="geometry">
            <mxPoint x="890" y="300" as="sourcePoint" />
            <mxPoint x="890.4900000000002" y="248.01999999999998" as="targetPoint" />
          </mxGeometry>
        </mxCell>
        <mxCell id="YC6lqjd3cqx8O2niCZhP-27" value="Blocking Queue" style="shape=component;align=left;spacingLeft=36;rounded=0;shadow=0;comic=0;labelBackgroundColor=none;strokeWidth=1;fontFamily=Verdana;fontSize=12;html=1;" vertex="1" parent="1">
          <mxGeometry x="550" y="210" width="140" height="60" as="geometry" />
        </mxCell>
        <mxCell id="YC6lqjd3cqx8O2niCZhP-35" value="Response" style="text;whiteSpace=wrap;html=1;" vertex="1" parent="1">
          <mxGeometry x="705" y="200" width="70" height="30" as="geometry" />
        </mxCell>
        <mxCell id="YC6lqjd3cqx8O2niCZhP-42" value="Database Connector" style="verticalAlign=top;align=left;spacingTop=8;spacingLeft=2;spacingRight=12;shape=cube;size=10;direction=south;fontStyle=4;html=1;rounded=0;shadow=0;comic=0;labelBackgroundColor=none;strokeWidth=1;fontFamily=Verdana;fontSize=12" vertex="1" parent="1">
          <mxGeometry x="785" y="300" width="230" height="110" as="geometry" />
        </mxCell>
        <mxCell id="YC6lqjd3cqx8O2niCZhP-43" value="Connection Pool" style="shape=component;align=left;spacingLeft=36;rounded=0;shadow=0;comic=0;labelBackgroundColor=none;strokeWidth=1;fontFamily=Verdana;fontSize=12;html=1;" vertex="1" parent="1">
          <mxGeometry x="830" y="340" width="140" height="60" as="geometry" />
        </mxCell>
        <mxCell id="YC6lqjd3cqx8O2niCZhP-44" value="" style="endArrow=classic;html=1;rounded=0;exitX=1;exitY=0.374;exitDx=0;exitDy=0;exitPerimeter=0;entryX=0.69;entryY=0.01;entryDx=0;entryDy=0;entryPerimeter=0;" edge="1" parent="1" source="YC6lqjd3cqx8O2niCZhP-42" target="YC6lqjd3cqx8O2niCZhP-23">
          <mxGeometry width="50" height="50" relative="1" as="geometry">
            <mxPoint x="930" y="425" as="sourcePoint" />
            <mxPoint x="930" y="520" as="targetPoint" />
          </mxGeometry>
        </mxCell>
        <mxCell id="YC6lqjd3cqx8O2niCZhP-48" value="" style="endArrow=classic;html=1;rounded=0;exitX=0.3;exitY=0;exitDx=0;exitDy=0;exitPerimeter=0;" edge="1" parent="1" source="YC6lqjd3cqx8O2niCZhP-23">
          <mxGeometry width="50" height="50" relative="1" as="geometry">
            <mxPoint x="840" y="450" as="sourcePoint" />
            <mxPoint x="890" y="411" as="targetPoint" />
          </mxGeometry>
        </mxCell>
        <mxCell id="BQAGHMHkwjRLsr3GXuEI-4" value="" style="endArrow=classic;html=1;rounded=0;entryX=0.5;entryY=1;entryDx=0;entryDy=0;exitX=0.5;exitY=0;exitDx=0;exitDy=0;" edge="1" parent="1" source="YC6lqjd3cqx8O2niCZhP-27" target="39150e848f15840c-7">
          <mxGeometry width="50" height="50" relative="1" as="geometry">
            <mxPoint x="630" y="200" as="sourcePoint" />
            <mxPoint x="630" y="130" as="targetPoint" />
          </mxGeometry>
        </mxCell>
        <mxCell id="GXTLpuckFzTqcM0Xt9wn-1" value="" style="endArrow=classic;html=1;rounded=0;" edge="1" parent="1">
          <mxGeometry width="50" height="50" relative="1" as="geometry">
            <mxPoint x="790" y="230" as="sourcePoint" />
            <mxPoint x="690" y="230" as="targetPoint" />
          </mxGeometry>
        </mxCell>
        <mxCell id="GXTLpuckFzTqcM0Xt9wn-2" value="Response" style="text;whiteSpace=wrap;html=1;" vertex="1" parent="1">
          <mxGeometry x="630" y="170" width="70" height="30" as="geometry" />
        </mxCell>
        <mxCell id="GXTLpuckFzTqcM0Xt9wn-3" value="" style="endArrow=classic;html=1;rounded=0;" edge="1" parent="1">
          <mxGeometry width="50" height="50" relative="1" as="geometry">
            <mxPoint x="387.03" y="105" as="sourcePoint" />
            <mxPoint x="499.05999999999995" y="104.5" as="targetPoint" />
          </mxGeometry>
        </mxCell>
        <mxCell id="GXTLpuckFzTqcM0Xt9wn-5" value="" style="endArrow=classic;html=1;rounded=0;exitX=1;exitY=0.5;exitDx=0;exitDy=0;" edge="1" parent="1">
          <mxGeometry width="50" height="50" relative="1" as="geometry">
            <mxPoint x="500" y="140" as="sourcePoint" />
            <mxPoint x="387.03" y="140" as="targetPoint" />
          </mxGeometry>
        </mxCell>
        <mxCell id="YC6lqjd3cqx8O2niCZhP-5" value="&lt;div align=&quot;center&quot;&gt;TCP&lt;/div&gt;" style="text;whiteSpace=wrap;html=1;align=center;" vertex="1" parent="1">
          <mxGeometry x="418.51" y="40" width="50" height="20" as="geometry" />
        </mxCell>
        <mxCell id="GXTLpuckFzTqcM0Xt9wn-7" value="" style="endArrow=classic;startArrow=classic;html=1;rounded=0;" edge="1" parent="1">
          <mxGeometry width="50" height="50" relative="1" as="geometry">
            <mxPoint x="350" y="70" as="sourcePoint" />
            <mxPoint x="570" y="70" as="targetPoint" />
          </mxGeometry>
        </mxCell>
      </root>
    </mxGraphModel>
  </diagram>
</mxfile>
